<svg width="100" height="100" viewBox="0 0 100 100" fill="none" xmlns="http://www.w3.org/2000/svg">
<path d="M19.4059 25.2687C19.1929 26.8697 19.0403 27.6865 18.5549 28.2649C17.5965 29.4071 16.2834 29.2491 15.1405 28.2901C14.6367 27.8674 14.312 27.5938 13.8489 26.4766C13.8489 26.4766 13.7253 25.5424 12.437 24.5468C11.2209 23.4416 10.2743 23.4876 10.2743 23.4876C9.09387 23.2252 8.78408 22.9575 8.28094 22.5354C7.13804 21.5764 6.75322 20.3107 7.71222 19.1678C8.19755 18.5895 8.97586 18.2987 10.5158 17.81C10.5158 17.81 13.5156 16.7803 15.4232 16.7125C16.8009 16.6644 17.9429 17.627 17.9429 17.627L18.2959 17.9232C18.2959 17.9232 19.4929 18.9221 19.6351 20.2466C19.8361 22.1444 19.4057 25.269 19.4059 25.2687ZM16.495 14.0402C17.6899 15.0428 19.925 14.3461 21.4872 12.4843C23.0494 10.6225 23.3474 8.30042 22.1526 7.29779C20.9577 6.29516 18.7226 6.99192 17.1604 8.85369C15.5982 10.7155 15.3001 13.0376 16.495 14.0402ZM11.6821 15.5654C12.9039 15.8978 14.3145 14.6248 14.8323 12.7215C15.3501 10.8182 14.7798 9.00571 13.5582 8.673C12.3367 8.3403 10.9262 9.61396 10.4081 11.5169C9.89021 13.4202 10.4608 15.2324 11.6821 15.5654ZM21.5248 18.2607C22.7197 19.2634 24.9551 18.5669 26.5173 16.7051C28.0795 14.8433 28.3773 12.521 27.1824 11.5183C25.9875 10.5157 23.7524 11.2125 22.1902 13.0742C20.628 14.936 20.33 17.2581 21.5248 18.2607ZM27.3211 20.2208C26.7812 19.075 24.8975 18.8284 23.1128 19.6691C21.3281 20.5099 20.3193 22.1201 20.8592 23.2659C21.3993 24.4114 23.283 24.6581 25.0674 23.8176C26.8518 22.9771 27.8609 21.3666 27.3211 20.2208Z" fill="#030104"/>
<path d="M52.2542 29.7562C52.142 30.5994 52.0616 31.0296 51.806 31.3343C51.3011 31.9359 50.6095 31.8526 50.0076 31.3475C49.7422 31.1249 49.5712 30.9808 49.3273 30.3924C49.3273 30.3924 49.2622 29.9004 48.5837 29.376C47.9432 28.7938 47.4446 28.8181 47.4446 28.8181C46.8229 28.6799 46.6597 28.5389 46.3947 28.3165C45.7927 27.8114 45.59 27.1449 46.0951 26.5429C46.3508 26.2383 46.7607 26.0851 47.5718 25.8277C47.5718 25.8277 49.1517 25.2854 50.1565 25.2497C50.8821 25.2243 51.4836 25.7314 51.4836 25.7314L51.6695 25.8874C51.6695 25.8874 52.3 26.4134 52.3749 27.1111C52.4807 28.1106 52.254 29.7563 52.2542 29.7562ZM50.721 23.8422C51.3503 24.3703 52.5276 24.0033 53.3504 23.0227C54.1732 22.0421 54.3302 20.8191 53.7008 20.291C53.0715 19.7629 51.8943 20.1299 51.0715 21.1105C50.2486 22.0911 50.0917 23.3141 50.721 23.8422ZM48.1861 24.6455C48.8296 24.8206 49.5725 24.1501 49.8453 23.1476C50.118 22.1452 49.8176 21.1905 49.1742 21.0153C48.5308 20.8401 47.7879 21.5109 47.515 22.5132C47.2423 23.5156 47.5428 24.4701 48.1861 24.6455ZM53.3702 26.0651C53.9995 26.5932 55.1769 26.2264 55.9997 25.2458C56.8225 24.2652 56.9793 23.042 56.35 22.5139C55.7207 21.9858 54.5435 22.3528 53.7207 23.3334C52.8978 24.314 52.7409 25.537 53.3702 26.0651ZM56.423 27.0975C56.1387 26.494 55.1466 26.3641 54.2066 26.8069C53.2666 27.2498 52.7353 28.0978 53.0196 28.7013C53.3041 29.3047 54.2962 29.4346 55.236 28.9919C56.1759 28.5492 56.7074 27.701 56.423 27.0975Z" fill="#030104"/>
<path d="M23.2542 63.7562C23.142 64.5994 23.0616 65.0296 22.806 65.3343C22.3011 65.9359 21.6095 65.8526 21.0076 65.3475C20.7422 65.1249 20.5712 64.9808 20.3273 64.3924C20.3273 64.3924 20.2622 63.9004 19.5837 63.376C18.9432 62.7938 18.4446 62.8181 18.4446 62.8181C17.8229 62.6799 17.6597 62.5389 17.3947 62.3165C16.7927 61.8114 16.59 61.1449 17.0951 60.5429C17.3508 60.2383 17.7607 60.0851 18.5718 59.8277C18.5718 59.8277 20.1517 59.2854 21.1565 59.2497C21.8821 59.2243 22.4836 59.7314 22.4836 59.7314L22.6695 59.8874C22.6695 59.8874 23.3 60.4134 23.3749 61.1111C23.4807 62.1106 23.254 63.7563 23.2542 63.7562ZM21.721 57.8422C22.3503 58.3703 23.5276 58.0033 24.3504 57.0227C25.1732 56.0421 25.3302 54.8191 24.7008 54.291C24.0715 53.7629 22.8943 54.1299 22.0715 55.1105C21.2486 56.0911 21.0917 57.3141 21.721 57.8422ZM19.1861 58.6455C19.8296 58.8206 20.5725 58.1501 20.8453 57.1476C21.118 56.1452 20.8176 55.1905 20.1742 55.0153C19.5308 54.8401 18.7879 55.5109 18.515 56.5132C18.2423 57.5156 18.5428 58.4701 19.1861 58.6455ZM24.3702 60.0651C24.9995 60.5932 26.1769 60.2264 26.9997 59.2458C27.8225 58.2652 27.9793 57.042 27.35 56.5139C26.7207 55.9858 25.5435 56.3528 24.7207 57.3334C23.8978 58.314 23.7409 59.537 24.3702 60.0651ZM27.423 61.0975C27.1387 60.494 26.1466 60.3641 25.2066 60.8069C24.2666 61.2498 23.7353 62.0978 24.0196 62.7013C24.3041 63.3047 25.2962 63.4346 26.236 62.9919C27.1759 62.5492 27.7074 61.701 27.423 61.0975Z" fill="#030104"/>
<path d="M59.1516 66.0042C58.9321 67.6542 58.7747 68.4961 58.2745 69.0922C57.2867 70.2694 55.9334 70.1065 54.7555 69.1182C54.2363 68.6825 53.9017 68.4006 53.4244 67.2491C53.4244 67.2491 53.297 66.2864 51.9693 65.2602C50.7159 64.1212 49.7403 64.1686 49.7403 64.1686C48.5237 63.8981 48.2044 63.6223 47.6859 63.1872C46.508 62.1988 46.1114 60.8944 47.0997 59.7165C47.5999 59.1204 48.4021 58.8208 49.9891 58.3171C49.9891 58.3171 53.0808 57.2559 55.0469 57.186C56.4668 57.1364 57.6438 58.1285 57.6438 58.1285L58.0076 58.4338C58.0076 58.4338 59.2412 59.4632 59.3877 60.8283C59.595 62.7843 59.1513 66.0045 59.1516 66.0042ZM56.1515 54.4318C57.383 55.4652 59.6865 54.7471 61.2966 52.8283C62.9066 50.9095 63.2138 48.5163 61.9823 47.4829C60.7509 46.4496 58.4473 47.1677 56.8373 49.0865C55.2272 51.0053 54.92 53.3985 56.1515 54.4318ZM51.1912 56.0038C52.4505 56.3464 53.9042 55.0343 54.4379 53.0728C54.9716 51.1112 54.3838 49.2432 53.1248 48.9003C51.8658 48.5574 50.4122 49.8701 49.8781 51.8313C49.3444 53.7929 49.9325 55.6606 51.1912 56.0038ZM61.3354 58.7816C62.5669 59.815 64.8707 59.0972 66.4808 57.1784C68.0909 55.2596 68.3977 52.8661 67.1662 51.8327C65.9347 50.7994 63.6312 51.5175 62.0212 53.4363C60.4111 55.3551 60.1039 57.7483 61.3354 58.7816ZM67.3091 60.8018C66.7528 59.6208 64.8114 59.3667 62.972 60.2332C61.1327 61.0997 60.093 62.7592 60.6493 63.9401C61.206 65.1207 63.1474 65.3749 64.9865 64.5087C66.8255 63.6425 67.8655 61.9827 67.3091 60.8018Z" fill="#030104"/>
<path d="M84.7984 25.9264C84.6344 27.1593 84.5168 27.7882 84.1431 28.2336C83.405 29.1132 82.3938 28.9916 81.5137 28.2531C81.1258 27.9275 80.8758 27.7169 80.5192 26.8566C80.5192 26.8566 80.424 26.1372 79.4319 25.3705C78.4955 24.5194 77.7665 24.5549 77.7665 24.5549C76.8575 24.3528 76.619 24.1467 76.2315 23.8216C75.3514 23.0831 75.0551 22.1085 75.7936 21.2284C76.1673 20.783 76.7666 20.5591 77.9524 20.1828C77.9524 20.1828 80.2625 19.3899 81.7315 19.3376C82.7924 19.3006 83.6718 20.0419 83.6718 20.0419L83.9436 20.27C83.9436 20.27 84.8653 21.0391 84.9748 22.0591C85.1297 23.5205 84.7982 25.9266 84.7984 25.9264ZM82.5568 17.2798C83.477 18.0519 85.1981 17.5154 86.4011 16.0817C87.6041 14.648 87.8336 12.8599 86.9135 12.0878C85.9933 11.3157 84.2722 11.8522 83.0692 13.2859C81.8662 14.7196 81.6367 16.5077 82.5568 17.2798ZM78.8506 18.4543C79.7915 18.7103 80.8777 17.73 81.2764 16.2643C81.6752 14.7987 81.236 13.403 80.2953 13.1468C79.3547 12.8906 78.2685 13.8714 77.8695 15.3368C77.4707 16.8024 77.9101 18.1979 78.8506 18.4543ZM86.4301 20.5299C87.3502 21.302 89.0716 20.7656 90.2746 19.3319C91.4776 17.8983 91.7069 16.1099 90.7867 15.3378C89.8666 14.5657 88.1455 15.1023 86.9425 16.536C85.7395 17.9696 85.51 19.7578 86.4301 20.5299ZM90.8935 22.0393C90.4778 21.1569 89.0272 20.967 87.6529 21.6144C86.2786 22.2619 85.5018 23.5018 85.9175 24.3842C86.3334 25.2663 87.784 25.4562 89.1581 24.809C90.5322 24.1618 91.3092 22.9216 90.8935 22.0393Z" fill="#030104"/>
<path d="M33.0771 92.0589C32.8537 93.7382 32.6935 94.5949 32.1845 95.2016C31.1792 96.3997 29.8018 96.2339 28.6031 95.228C28.0746 94.7846 27.7341 94.4977 27.2484 93.3259C27.2484 93.3259 27.1187 92.346 25.7675 91.3017C24.4919 90.1424 23.4989 90.1907 23.4989 90.1907C22.2608 89.9155 21.9359 89.6347 21.4081 89.1919C20.2093 88.186 19.8057 86.8585 20.8116 85.6597C21.3207 85.0531 22.137 84.7481 23.7522 84.2355C23.7522 84.2355 26.8987 83.1555 28.8997 83.0843C30.3447 83.0338 31.5426 84.0436 31.5426 84.0436L31.9128 84.3542C31.9128 84.3542 33.1683 85.4019 33.3174 86.7913C33.5283 88.7819 33.0768 92.0592 33.0771 92.0589ZM30.0238 80.2814C31.2772 81.333 33.6215 80.6022 35.2601 78.6494C36.8987 76.6966 37.2114 74.2609 35.958 73.2093C34.7047 72.1576 32.3604 72.8884 30.7218 74.8412C29.0832 76.7941 28.7705 79.2297 30.0238 80.2814ZM24.9756 81.8812C26.2572 82.2298 27.7367 80.8945 28.2798 78.8982C28.823 76.9019 28.2248 75.0007 26.9435 74.6517C25.6622 74.3028 24.1827 75.6387 23.6393 77.6347C23.0961 79.6311 23.6946 81.5319 24.9756 81.8812ZM35.2996 84.7083C36.5529 85.7599 38.8976 85.0294 40.5362 83.0766C42.1748 81.1238 42.4871 78.6878 41.2338 77.6362C39.9805 76.5845 37.6361 77.3154 35.9975 79.2682C34.359 81.221 34.0463 83.6566 35.2996 84.7083ZM41.3793 86.7642C40.813 85.5624 38.8372 85.3036 36.9653 86.1856C35.0933 87.0675 34.0352 88.7564 34.6014 89.9582C35.1679 91.1597 37.1437 91.4184 39.0154 90.5369C40.8871 89.6553 41.9455 87.9661 41.3793 86.7642Z" fill="#030104"/>
<path d="M77.2939 87.8126C77.1811 88.6599 77.1003 89.0922 76.8435 89.3983C76.3362 90.0028 75.6413 89.9192 75.0365 89.4116C74.7698 89.1879 74.598 89.0431 74.3529 88.4519C74.3529 88.4519 74.2875 87.9575 73.6057 87.4306C72.9621 86.8457 72.4611 86.87 72.4611 86.87C71.8364 86.7312 71.6725 86.5895 71.4062 86.3661C70.8014 85.8586 70.5977 85.1888 71.1052 84.5839C71.3621 84.2778 71.774 84.124 72.5889 83.8653C72.5889 83.8653 74.1765 83.3204 75.1861 83.2845C75.9152 83.259 76.5196 83.7685 76.5196 83.7685L76.7064 83.9252C76.7064 83.9252 77.3398 84.4538 77.4151 85.1548C77.5215 86.1592 77.2937 87.8128 77.2939 87.8126ZM75.7533 81.8702C76.3857 82.4008 77.5685 82.0321 78.3953 81.0468C79.2221 80.0615 79.3798 78.8326 78.7474 78.302C78.1151 77.7714 76.9322 78.1401 76.1054 79.1254C75.2787 80.1107 75.1209 81.3396 75.7533 81.8702ZM73.2062 82.6774C73.8528 82.8533 74.5993 82.1796 74.8734 81.1723C75.1474 80.1651 74.8456 79.2059 74.1991 79.0298C73.5526 78.8537 72.8062 79.5278 72.5319 80.5349C72.2579 81.5421 72.5599 82.5012 73.2062 82.6774ZM78.4152 84.1038C79.0476 84.6345 80.2306 84.2659 81.0574 83.2806C81.8841 82.2953 82.0417 81.0662 81.4093 80.5356C80.777 80.005 79.5941 80.3737 78.7674 81.359C77.9406 82.3443 77.7829 83.5732 78.4152 84.1038ZM81.4827 85.1412C81.197 84.5348 80.2001 84.4042 79.2556 84.8492C78.3111 85.2942 77.7772 86.1463 78.0629 86.7527C78.3488 87.3589 79.3457 87.4895 80.29 87.0447C81.2344 86.5999 81.7684 85.7476 81.4827 85.1412Z" fill="#030104"/>
</svg>
